<?xml version="1.0" encoding="iso-8859-1"?>
<!-- Generator: Adobe Illustrator 17.1.0, SVG Export Plug-In . SVG Version: 6.00 Build 0)  -->
<!DOCTYPE svg PUBLIC "-//W3C//DTD SVG 1.1//EN" "http://www.w3.org/Graphics/SVG/1.1/DTD/svg11.dtd">
<svg version="1.1" id="Capa_1" xmlns="http://www.w3.org/2000/svg" xmlns:xlink="http://www.w3.org/1999/xlink" x="0px" y="0px"
	 viewBox="0 0 511 511" style="enable-background:new 0 0 511 511;" xml:space="preserve">
<g>
	<path d="M511,247.5c0-0.583-0.073-1.147-0.199-1.691c-2.394-64.611-28.67-125.009-74.635-170.975C387.908,26.577,323.747,0,255.5,0
		S123.092,26.577,74.834,74.834C26.577,123.092,0,187.253,0,255.5s26.577,132.408,74.834,180.666
		C123.092,484.423,187.253,511,255.5,511s132.408-26.577,180.666-74.834C484.423,387.908,511,323.747,511,255.5
		c0-2.293-0.035-4.58-0.095-6.863C510.961,248.265,511,247.887,511,247.5z M85.441,85.441C130.865,40.016,191.26,15,255.5,15
		s124.635,25.016,170.059,70.441c41.751,41.751,66.244,96.152,69.935,154.559H471v-0.5c0-4.142-3.358-7.5-7.5-7.5H439v-16.5
		c0-4.142-3.358-7.5-7.5-7.5H415v-16.5c0-4.142-3.358-7.5-7.5-7.5s-7.5,3.358-7.5,7.5V208h-0.5c-4.142,0-7.5,3.358-7.5,7.5v0.5h-9
		v-80.5c0-4.142-3.358-7.5-7.5-7.5h-32c-4.142,0-7.5,3.358-7.5,7.5V208h-9v-16.5c0-4.142-3.358-7.5-7.5-7.5H295v-48.5
		c0-2.634-1.382-5.076-3.641-6.431l-40-24c-2.318-1.39-5.203-1.426-7.554-0.095S240,108.798,240,111.5V152h-17V95.651
		c0-0.008,0-0.016,0-0.024V63.5c0-4.142-3.358-7.5-7.5-7.5s-7.5,3.358-7.5,7.5v26.922l-35.286,14.114
		c-2.847,1.139-4.714,3.896-4.714,6.963V192h-17v-16.5c0-4.142-3.358-7.5-7.5-7.5h-32c-4.142,0-7.5,3.358-7.5,7.5v26.922l-17,6.8
		V191.5c0-4.142-3.358-7.5-7.5-7.5s-7.5,3.358-7.5,7.5v23.722l-3.286,1.314C65.867,217.675,64,220.433,64,223.5v8.5H39.5
		c-4.142,0-7.5,3.358-7.5,7.5v8.5H15.128C16.997,186.571,41.789,129.093,85.441,85.441z M496,255.5
		c0,10.965-0.746,21.814-2.181,32.5H471v-33h24.994C495.994,255.167,496,255.333,496,255.5z M439,288v-41h17v41H439z M383,288v-57h9
		v57H383z M327,288v-24.5V223h9v65H327z M279,288v-10.146l33-5.5V288H279z M255.5,448c-4.142,0-7.5,3.358-7.5,7.5v40.373
		c-30.169-0.918-59.381-7.37-86.474-18.868L255.5,310.742l93.974,166.262c-27.093,11.498-56.305,17.95-86.474,18.868V455.5
		C263,451.358,259.642,448,255.5,448z M183,288V116.578l25-10V288H183z M151,288v-32.5V207h17v81H151z M103,288v-25h33v25H103z
		 M79,288v-59.422l25-10V248h-8.5c-4.142,0-7.5,3.358-7.5,7.5V288H79z M47,288v-41h17v41H47z M17.181,288
		c-1.107-8.243-1.798-16.583-2.054-25H32v25H17.181z M136,248h-17v-40.349c0-0.008,0-0.016,0-0.024V183h17V248z M223,167h17v121h-17
		V167z M255.637,288c-0.004,0-0.008,0-0.011,0h-0.251c-0.004,0-0.008,0-0.011,0H255V124.747l25,15V262.48l-9.733,1.622
		c-3.617,0.603-6.267,3.731-6.267,7.398V288H255.637z M312,257.146l-17,2.833V199h17V257.146z M351,143h17v145h-17V143z M407,223h17
		v65h-17V223z M19.664,303H175.5h40h27.146L147.86,470.698c-22.799-11.431-43.859-26.58-62.419-45.139
		C51.425,391.544,28.856,349.133,19.664,303z M425.559,425.559c-18.559,18.56-39.62,33.708-62.419,45.139L268.354,303H343.5h32h24
		h32h59.836C482.144,349.133,459.575,391.544,425.559,425.559z"/>
	<path d="M263,407.5c0-4.142-3.358-7.5-7.5-7.5s-7.5,3.358-7.5,7.5v24c0,4.142,3.358,7.5,7.5,7.5s7.5-3.358,7.5-7.5V407.5z"/>
	<path d="M255.5,391c4.142,0,7.5-3.358,7.5-7.5v-8c0-4.142-3.358-7.5-7.5-7.5s-7.5,3.358-7.5,7.5v8
		C248,387.642,251.358,391,255.5,391z"/>
	<path d="M255.5,359c1.97,0,3.91-0.8,5.3-2.2c1.4-1.39,2.2-3.33,2.2-5.3c0-1.97-0.8-3.91-2.2-5.3c-1.39-1.4-3.32-2.2-5.3-2.2
		s-3.91,0.8-5.3,2.2c-1.4,1.39-2.2,3.33-2.2,5.3c0,1.97,0.8,3.91,2.2,5.3C251.59,358.2,253.53,359,255.5,359z"/>
</g>
<g>
</g>
<g>
</g>
<g>
</g>
<g>
</g>
<g>
</g>
<g>
</g>
<g>
</g>
<g>
</g>
<g>
</g>
<g>
</g>
<g>
</g>
<g>
</g>
<g>
</g>
<g>
</g>
<g>
</g>
</svg>
